<svg height="512pt" viewBox="0 0 512.0008 512" width="512pt" xmlns="http://www.w3.org/2000/svg"><path d="m442.46875 237.242188c0-20.15625 36.523438-44.839844 31.554688-63.429688-5.140626-19.238281-49.261719-22.335938-59.007813-39.179688-9.882813-17.085937 9.386719-56.816406-4.480469-70.683593-13.863281-13.863281-53.59375 5.40625-70.679687-4.480469-16.84375-9.742188-19.941407-53.863281-39.175781-59.003906-18.59375-4.96875-43.277344 31.554687-63.4375 31.554687-20.15625 0-44.839844-36.523437-63.433594-31.554687-19.234375 5.140625-22.335938 49.261718-39.175782 59.007812-17.085937 9.882813-56.816406-9.386718-70.683593 4.480469-13.863281 13.863281 5.40625 53.59375-4.480469 70.679687-9.742188 16.84375-53.863281 19.941407-59.003906 39.179688-4.96875 18.589844 31.554687 43.273438 31.554687 63.433594 0 20.15625-36.523437 44.839844-31.554687 63.433594 5.140625 19.234374 49.261718 22.335937 59.007812 39.175781 9.882813 17.085937-9.386718 56.816406 4.480469 70.683593 13.863281 13.863282 53.59375-5.40625 70.679687 4.480469 16.839844 9.742188 19.941407 53.863281 39.175782 59.003907 18.59375 4.96875 43.277344-31.554688 63.4375-31.554688 20.15625 0 44.839844 36.523438 63.433594 31.554688 19.234374-5.140626 22.332031-49.261719 39.175781-59.007813 17.085937-9.882813 56.816406 9.386719 70.683593-4.480469 13.863282-13.863281-5.40625-53.59375 4.480469-70.679687 9.742188-16.839844 53.863281-19.941407 59.003907-39.175781 4.96875-18.59375-31.554688-43.277344-31.554688-63.4375zm0 0" fill="#ffee8c"/><path d="m395.671875 237.242188c0 81.136718-60.980469 148.03125-139.617187 157.328124-6.164063.730469-12.445313 1.109376-18.808594 1.109376-87.5 0-158.4375-70.9375-158.4375-158.4375s70.9375-158.425782 158.4375-158.425782c6.363281 0 12.644531.375 18.808594 1.105469 78.636718 9.300781 139.617187 76.183594 139.617187 157.320313zm0 0" fill="#f28f44"/><path d="m395.671875 237.242188c0 81.136718-60.980469 148.03125-139.617187 157.328124-78.636719-9.296874-139.628907-76.191406-139.628907-157.328124 0-81.136719 60.992188-148.019532 139.628907-157.320313 78.636718 9.300781 139.617187 76.183594 139.617187 157.320313zm0 0" fill="#ffd073"/><path d="m512 455.917969c0 30.738281-24.917969 55.660156-55.671875 55.660156h-201.453125c-40.878906 0-74.019531-33.132813-74.019531-74.019531 0-40.875 33.140625-74.019532 74.019531-74.019532 3.667969 0 7.269531.28125 10.804688.792969 16.714843-33.195312 51.09375-55.976562 90.808593-55.976562 48.054688 0 88.316407 33.363281 98.890625 78.191406 1.054688 4.472656 1.816406 9.058594 2.257813 13.730469v.007812c30.132812.691406 54.363281 25.328125 54.363281 55.632813zm0 0" fill="#d3ddea"/><path d="m391.804688 314.671875c-11-4.085937-22.902344-6.3125-35.316407-6.3125-39.714843 0-74.082031 22.78125-90.8125 55.964844v.011719c-3.53125-.511719-7.136719-.792969-10.804687-.792969-40.886719 0-74.019532 33.144531-74.019532 74.019531 0 40.886719 33.132813 74.019531 74.019532 74.019531h35.777344c-36.839844 0-66.695313-29.863281-66.695313-66.695312 0-32.683594 23.511719-59.882813 54.554687-65.585938 3.074219-.578125 6.21875-.933593 9.425782-1.058593.898437-.03125 1.808594-.050782 2.714844-.050782 11.976562 0 23.21875 3.15625 32.925781 8.695313-1.347657-9.398438-11.0625-18.199219-25.386719-25.292969 7.867188-26.597656 34.632812-51.265625 93.617188-46.921875zm0 0" fill="#84abc1"/><g fill="#cc9236"><path d="m193.113281 213.246094c-2.007812 0-4.011719-.761719-5.542969-2.292969-5.015624-5.019531-11.6875-7.78125-18.785156-7.78125s-13.769531 2.761719-18.785156 7.78125c-3.0625 3.058594-8.023438 3.058594-11.082031 0-3.0625-3.0625-3.0625-8.023437 0-11.082031 7.976562-7.980469 18.585937-12.375 29.867187-12.375 11.285156 0 21.890625 4.394531 29.871094 12.375 3.058594 3.058594 3.058594 8.023437 0 11.082031-1.535156 1.53125-3.539062 2.292969-5.542969 2.292969zm0 0"/><path d="m330.03125 213.246094c-2.003906 0-4.007812-.761719-5.539062-2.292969-10.359376-10.359375-27.214844-10.359375-37.574219 0-3.0625 3.058594-8.023438 3.058594-11.082031 0-3.0625-3.0625-3.0625-8.023437 0-11.082031 16.46875-16.46875 43.269531-16.46875 59.738281 0 3.0625 3.058594 3.0625 8.019531 0 11.082031-1.53125 1.53125-3.535157 2.292969-5.542969 2.292969zm0 0"/><path d="m237.246094 278.4375c-17.019532 0-33.015625-6.625-45.050782-18.660156-3.058593-3.058594-3.058593-8.019532 0-11.082032 3.0625-3.058593 8.023438-3.058593 11.082032 0 9.074218 9.074219 21.136718 14.070313 33.964844 14.070313 12.832031 0 24.894531-4.996094 33.964843-14.070313 3.0625-3.058593 8.023438-3.058593 11.082031 0 3.0625 3.0625 3.0625 8.023438 0 11.082032-12.03125 12.035156-28.027343 18.660156-45.042968 18.660156zm0 0"/></g></svg>